# xmcd CD database file
#
# Track frame offsets:
#	150
#	23680
#	40790
#	59102
#	73707
#	89585
#	106527
#	122932
#	145122
#	165037
#	177295
#	195287
#	217487
#	241612
#	254812
#	273427
#	299697
#	320265
#
# Disc length: 4362 seconds
#
# Revision: 2
# Processed by: cddbd v1.5.2PL0 Copyright (c) Steve Scherf et al.
# Submitted via: CDex 1.70beta2
#
DISCID=0c110812
DTITLE=Various Artist - Ultimate Hard NRG and Hardcore 2 - Best of Midtown Records - CD04 Best of Midtown
DYEAR=2005
DGENRE=Techno
TTITLE0=Chemist - Ruff Kutz (Klubbheads Mix)
TTITLE1=Intellect - Hypnotising
TTITLE2=King Dale - Bonus (Club Version)
TTITLE3=IQ - Mindtransfer
TTITLE4=3 X T - Turn Table Tribal
TTITLE5=Mellow Tracks Vol. 2 - Summer Fairytales
TTITLE6=Planet Dance - So, Get Up
TTITLE7=Mind To Mind - Rude Entry
TTITLE8=The Ultimate Seduction - The Ultimate Seduction
TTITLE9=Egma - Let The Bass Kick
TTITLE10=Itty Bitty Boozy Woozy - Tempo Fiesta
TTITLE11=Team Deep - Morning Light
TTITLE12=Digital Express - The Club
TTITLE13=Planet Dance - Circus Beat
TTITLE14=Tellurians - The Navigator
TTITLE15=Misjah and Groovehead - Trippin' Out
TTITLE16=Misjah and Tim - Acces
TTITLE17=Tecmania Rebel - Fire Percussion
EXTD=YEAR: 2005
EXTT0=
EXTT1=
EXTT2=
EXTT3=
EXTT4=
EXTT5=
EXTT6=
EXTT7=
EXTT8=
EXTT9=
EXTT10=
EXTT11=
EXTT12=
EXTT13=
EXTT14=
EXTT15=
EXTT16=
EXTT17=
PLAYORDER=
